<svg width="19" height="20" viewBox="0 0 19 20" fill="none" xmlns="http://www.w3.org/2000/svg">
<path id="Vector" d="M1.64111 5.46058C1.79426 5.26583 1.99595 5.00221 2.15747 4.81379C2.6412 4.29446 2.70397 4.22638 3.14417 3.84242C3.27473 3.74108 3.42956 3.61917 3.58103 3.50437C2.46378 4.39896 2.32151 5.38933 3.3467 6.00129L3.34503 6.00287C4.77863 6.81987 7.92034 6.64333 10.3992 5.59675C12.8003 4.58342 13.6865 3.13388 12.5015 2.27254C11.4612 2.08808 10.221 2.06671 8.90871 2.23296L8.7723 2.02L8.88528 1.66692C9.6569 1.60121 10.39 1.61704 11.0227 1.71917C11.1759 1.74371 11.3776 1.78567 11.5282 1.81575C11.8194 1.88304 11.9776 1.92342 12.1676 1.98121C12.3617 2.03583 12.5274 2.09046 12.8162 2.19179C13.099 2.29708 13.2212 2.34458 13.448 2.45146C13.702 2.56108 13.9488 2.68506 14.187 2.82275C16.0751 3.94612 14.9009 5.99575 11.5692 7.40017C8.24673 8.79983 4.01287 9.01992 2.11563 7.91C2.11563 7.91 2.11228 7.90683 2.10726 7.90525H2.11061C1.07453 7.28458 0.965735 6.38367 1.64111 5.46058ZM10.2854 13.3139L10.2586 12.052L9.31042 11.0545C6.17792 11.7258 3.09898 11.5817 1.38669 10.6278C1.38084 10.6215 1.36661 10.6151 1.36075 10.6088C0.391624 10.0443 0.152272 9.316 0.225082 8.52433C-0.00171646 9.68254 -0.0201282 10.1005 0.0125108 11.0917C0.0526817 11.7124 0.431795 12.2847 1.19421 12.736L1.20007 12.7423C3.02533 13.8158 6.82819 14.0486 10.2854 13.3139ZM14.2397 14.7587C9.81842 16.4362 4.28486 16.5352 1.8813 14.9827C2.14087 15.5828 2.49406 16.1427 2.92909 16.6437C5.13515 18.0687 10.2143 17.9776 14.2707 16.4378C16.645 15.5377 18.143 14.3399 18.5364 13.2173L18.6468 12.8793C18.9088 12.0227 18.9582 11.3094 19 10.6745C18.9523 12.0528 17.2358 13.6203 14.2397 14.7587ZM4.47986 17.9895C4.61878 18.1146 5.05564 18.622 7.26923 19.1825C7.86761 19.3076 9.37403 19.709 12.1567 19.1255L12.1734 18.8857L11.9533 18.5595C9.37151 19.1374 6.50347 18.9442 4.47986 17.9895ZM10.8687 8.00737L13.2196 9.69283C13.2196 9.69283 13.7225 10.0356 13.248 10.2763C12.7752 10.5146 11.5608 11.098 11.5608 11.098L10.3616 10.6745L9.75983 10.9278L10.821 11.7995L10.8294 13.1556L11.4529 12.8935L11.8663 11.748C11.8663 11.748 13.1359 11.2857 13.6397 11.1115C14.146 10.9413 14.0782 11.524 14.0782 11.524L13.8288 14.3035L14.6573 13.9552L16.0215 10.205C16.0215 10.205 16.7446 9.87254 17.2534 9.58042C17.7614 9.28829 17.9355 8.80379 17.9355 8.80379C17.9355 8.80379 17.44 8.60192 16.8693 8.76421C16.2985 8.92492 15.5545 9.2115 15.5545 9.2115L11.6947 7.66062L10.8687 8.00737ZM5.89505 2.67471L7.49101 3.87725L7.92703 3.8155L7.05833 2.73646C7.05833 2.73646 6.8692 2.51321 7.12361 2.46017C7.3797 2.40633 8.02746 2.28125 8.02746 2.28125L8.51453 2.64937L8.8426 2.60346L8.47101 2.04454L8.66685 1.42467L8.34966 1.46821L7.9739 1.94004C7.9739 1.94004 7.31442 1.99862 7.05499 2.01921C6.79388 2.03821 6.90602 1.773 6.90602 1.773L7.40648 0.5L6.96795 0.560958L5.81303 2.15142C5.81303 2.15142 5.42806 2.21792 5.14938 2.29313C4.86985 2.36754 4.72256 2.57179 4.72256 2.57179C4.72256 2.57179 4.9276 2.72854 5.21633 2.723C5.50757 2.71746 5.89505 2.67471 5.89505 2.67471ZM13.7828 18.1265L12.7501 17.6158L12.5124 17.6942L13.1242 18.212C13.1242 18.212 13.2547 18.3172 13.1175 18.3735C12.9802 18.4289 12.6304 18.565 12.6304 18.565L12.3417 18.4431L12.1701 18.5017L12.4103 18.744L12.3868 19.0978L12.5659 19.0392L12.6998 18.7519C12.6998 18.7519 13.0631 18.6497 13.2078 18.6133C13.3518 18.5761 13.3192 18.736 13.3192 18.736L13.1827 19.5L13.4213 19.4216L13.8891 18.4115C13.8891 18.4115 14.0958 18.3347 14.2439 18.2642C14.3921 18.1937 14.4506 18.0639 14.4506 18.0639C14.4506 18.0639 14.3192 17.9958 14.1569 18.0299C13.9937 18.0623 13.7828 18.1265 13.7828 18.1265Z" fill="#FB583D"/>
</svg>
